<svg xmlns:mydata="http://www.w3.org/2000/svg" mydata:contrastcolor="47141e" mydata:template="Contrast" mydata:presentation="2.5" mydata:layouttype="undefined" mydata:specialfontid="undefined" mydata:id1="991" mydata:id2="123" mydata:companyname="Twisted" mydata:companytagline="" version="1.1" xmlns="http://www.w3.org/2000/svg" xmlns:xlink="http://www.w3.org/1999/xlink" viewBox="0 45 550 380" style="max-height: 180px;"><defs><linearGradient x1="117.27327" y1="235" x2="432.72673" y2="235" gradientUnits="userSpaceOnUse" id="color-15365124523"><stop offset="0" stop-color="#ed4264"></stop><stop offset="1" stop-color="#ffedbc"></stop></linearGradient></defs><g fill="url(#color-15365124523)" fill-rule="none" stroke="none" stroke-width="1" stroke-linecap="butt" stroke-linejoin="miter" stroke-miterlimit="10" stroke-dasharray="" stroke-dashoffset="0" font-family="none" font-weight="none" font-size="none" text-anchor="none" style="mix-blend-mode: normal"><g data-paper-data="{&quot;isGlobalGroup&quot;:true,&quot;bounds&quot;:{&quot;x&quot;:117.27326512552177,&quot;y&quot;:106.00000000000003,&quot;width&quot;:315.4534697489564,&quot;height&quot;:258}}"><g data-paper-data="{&quot;isIcon&quot;:&quot;true&quot;,&quot;iconType&quot;:&quot;icon&quot;,&quot;rawIconId&quot;:&quot;1720505&quot;,&quot;source&quot;:&quot;noun&quot;,&quot;selectedEffects&quot;:{&quot;container&quot;:&quot;&quot;,&quot;transformation&quot;:&quot;&quot;,&quot;pattern&quot;:&quot;&quot;},&quot;isDetailed&quot;:false,&quot;fillRule&quot;:&quot;evenodd&quot;,&quot;bounds&quot;:{&quot;x&quot;:191.45663458232337,&quot;y&quot;:151.45674450787652,&quot;width&quot;:167.08684076090634,&quot;height&quot;:132.54383494465162},&quot;iconStyle&quot;:&quot;standalone&quot;,&quot;suitableAsStandaloneIcon&quot;:false}" fill-rule="evenodd"><path d="M207.35066,284.00058c-9.99622,-13.77037 -15.89403,-30.70309 -15.89403,-49.00041c0,-46.1019 37.44152,-83.54342 83.54342,-83.54342c46.10168,0 83.54342,37.44152 83.54342,83.54342c0,18.29722 -5.89751,35.23004 -15.89414,49.00041c-45.09916,-4.8719 -90.19872,-4.8719 -135.29868,0zM240.19367,207.17779v55.6995c0,4.45528 6.96279,4.45528 6.96279,0v-55.6995c0,-1.95008 -1.66757,-3.61765 -3.61765,-3.61765c-1.94887,0 -3.34514,1.66757 -3.34514,3.61765zM323.74434,207.17779v55.6995c0,4.73449 6.96159,4.73449 6.96159,0v-55.6995c0,-1.95008 -1.67417,-3.61765 -3.62425,-3.61765c-1.95008,0 -3.33734,1.66757 -3.33734,3.61765zM278.35147,210.8017c0.27877,-1.95008 -1.39507,-3.62392 -3.34514,-3.62392c-1.94887,0 -3.61644,1.67384 -3.61644,3.62392v48.45793c0,4.73449 7.24036,4.73449 6.96159,0zM250.50161,217.48441v35.09142c0.27866,4.45671 6.96268,4.45671 6.96268,0v-35.09142c0.27877,-1.94876 -1.39507,-3.62381 -3.34514,-3.34514c-1.95008,0 -3.61754,1.39638 -3.61754,3.34514zM320.39931,217.48441c0,-1.94876 -1.66867,-3.62381 -3.61765,-3.34514c-1.95008,0 -3.62425,1.39638 -3.34503,3.34514v35.09142c0,4.45671 6.68457,4.45671 6.96268,0zM281.96912,221.10206v27.84997c0,4.73515 6.96279,4.73515 6.96279,0v-27.84997c0,-1.95008 -1.66757,-3.61765 -3.61765,-3.61765c-1.94887,0 -3.34514,1.66757 -3.34514,3.61765zM236.57723,224.4472c0.27756,-1.94876 -1.39627,-3.62392 -3.34514,-3.34514c-1.95008,0 -3.61765,1.39638 -3.61765,3.34514v21.16595c0,4.45638 6.96279,4.45638 6.96279,0zM292.54824,228.06485v13.92438c0,4.45638 6.6838,4.45638 6.96301,0v-13.92438c0,-1.95008 -1.66757,-3.61765 -3.61655,-3.61765c-1.95008,0 -3.62392,1.66757 -3.34646,3.61765zM226.26929,231.41c0,-1.95008 -1.66757,-3.62392 -3.61765,-3.34514c-1.94876,0 -3.34514,1.39507 -3.34514,3.34514v7.24157c0,4.45517 6.96279,4.45517 6.96279,0zM261.08194,231.68877v6.68402c0,4.73394 6.96159,4.73394 6.96159,0v-6.68402c0,-1.95008 -1.66757,-3.62392 -3.61644,-3.62392h-0.27877c-1.67131,0.27877 -3.06637,1.67384 -3.06637,3.62392zM309.81897,231.41c0,-1.95008 -1.67527,-3.34514 -3.62425,-3.34514c-1.95008,0 -3.33844,1.39507 -3.33844,3.34514v7.24157c0,4.45517 6.96268,4.45517 6.96268,0z"></path></g><g><path d="M223.99885,316.36531c0.65878,0.56802 1.48186,0.79179 2.51992,0.71499c1.46272,-0.10821 3.30473,-0.86124 5.38446,-2.24862c4.22062,-2.5895 6.87379,-6.48633 4.42019,-6.30481c-0.37748,0.02793 -1.54494,0.92082 -2.65125,1.99897c-2.56566,2.51451 -5.88448,4.46798 -7.3472,4.57619c-0.28311,0.02094 -0.52601,-0.05597 -0.63085,-0.19054c-0.20619,-0.22196 0.13469,-1.38581 0.7517,-2.66497l1.11341,-2.26474l2.36272,-0.12735c0.37748,-0.02793 0.66058,-0.04887 0.94369,-0.06981c1.27399,-0.09425 1.40856,-0.19909 1.37016,-0.71812c-0.03491,-0.47185 -0.53468,-0.81442 -1.45213,-1.0312c-1.44696,-0.31994 -1.29312,-0.80575 0.36712,-1.45045c0.78469,-0.29527 0.8669,-1.10788 0.11375,-1.66892c-0.34775,-0.21149 -0.64133,-0.3321 -0.97162,-0.30766c-0.56622,0.04189 -1.19538,0.51542 -2.34888,1.59706c-1.28807,1.18648 -1.68829,1.54819 -2.77354,1.62847c-0.23592,0.01745 -0.47534,-0.01228 -0.75844,0.00867c-0.28311,0.02094 -0.47185,0.03491 -0.66058,0.04887c-0.94369,0.06981 -1.12545,0.17815 -1.08705,0.69718c0.04189,0.56622 0.39313,0.82489 1.9117,1.47163c0.14155,-0.01047 -0.27095,0.82657 -0.76386,1.85934c-1.16758,2.17386 -1.17119,3.40765 0.18657,4.44583z" data-paper-data="{&quot;glyphName&quot;:&quot;t&quot;,&quot;glyphIndex&quot;:0,&quot;firstGlyphOfWord&quot;:true,&quot;word&quot;:1}" fill-rule="nonzero"></path><path d="M236.64036,317.00706c0.45055,0.54834 1.2194,0.79841 2.07021,0.76069c0.85081,-0.03772 1.78358,-0.36324 2.60504,-1.06271l1.18703,-0.99983l1.12906,0.89714c0.68689,0.53786 1.50301,0.78584 2.44835,0.74392c1.79615,-0.07964 3.9716,-1.21802 6.19757,-3.3532c0.95279,-0.94209 2.42552,-1.90723 3.31521,-2.13612c2.24158,-0.71507 5.0946,-2.5939 5.2974,-3.36065c0.11246,-0.66803 -0.18581,-0.98632 -0.80029,-0.95908c-0.56721,0.02515 -1.40544,0.34648 -2.5168,0.91671c-1.29623,0.67316 -2.45696,1.19822 -2.59876,1.20451c-0.1418,0.00629 -0.25729,-0.46219 -0.28873,-1.1712c-0.06078,-1.37075 -1.54586,-2.82042 -2.86934,-2.76174c-2.83603,0.12575 -3.98346,4.15487 -1.74211,5.57101c0.63334,0.39816 1.03243,0.85406 0.89901,1.04942c-0.53367,0.78142 -4.04214,2.83139 -5.03475,2.8754c-0.99261,0.04401 -0.94744,-0.00535 -0.79493,-1.90652c0.46148,-3.47775 0.3092,-3.7078 -0.59726,-3.85704c-0.04727,0.0021 -0.1418,0.00629 -0.18907,0.00838c-0.61447,0.02725 -1.2017,0.66896 -2.5296,2.76432c-1.41614,2.24135 -2.45299,3.42397 -3.06746,3.45121c-0.23634,0.01048 -0.38442,-0.12504 -0.48944,-0.35718c-0.15647,-0.32458 -0.35905,-1.68904 -0.41983,-3.05979c-0.13623,-3.07236 -0.39981,-3.67636 -1.58149,-3.62396c-0.80354,0.03563 -0.8876,0.27616 -1.10204,1.84855c-0.28802,2.04925 0.51833,5.28134 1.47299,6.51774zM251.86966,307.99643c0.24262,0.13132 0.39071,0.26684 0.397,0.40864c-0.04098,0.1439 -0.02631,0.47477 -0.01164,0.80564c0.01677,0.37814 -0.21119,0.57768 -0.44752,0.58816c-0.18907,0.00838 -0.4296,-0.07567 -0.58188,-0.30572c-0.2552,-0.41493 0.02956,-1.46947 0.5495,-1.49253c0.04727,-0.0021 0.04727,-0.0021 0.09453,-0.00419z" data-paper-data="{&quot;glyphName&quot;:&quot;w&quot;,&quot;glyphIndex&quot;:1,&quot;word&quot;:1}" fill-rule="nonzero"></path><path d="M258.91699,314.79932c0.28917,0.32658 0.81184,0.46013 1.42684,0.45023c2.45999,-0.03959 6.87339,-2.1927 9.94923,-5.1287c1.91219,-1.73429 2.19071,-2.07001 1.66195,-2.58201c-0.28917,-0.32658 -0.52876,-0.51201 -0.85991,-0.50668c-0.615,0.0099 -1.41009,0.59053 -3.09031,2.03717c-2.14645,1.88002 -6.17986,4.12164 -7.12601,4.13687c-0.04731,0.00076 -0.09538,-0.04578 -0.14268,-0.04502c-0.38227,-0.23045 1.31405,-3.61745 2.19918,-4.48345c0.97823,-0.96214 0.77301,-1.95255 -0.50429,-1.93199c-2.22345,0.03579 -5.67709,5.95902 -3.51399,8.05359zM262.63325,304.61309c0.14878,0.42348 0.43643,0.65545 0.76758,0.65012c0.33115,-0.00533 0.75311,-0.24872 1.21857,-0.72941c0.88437,-0.91331 0.67611,-2.09295 -0.27232,-2.21964c-0.04731,0.00076 -0.04731,0.00076 -0.09461,0.00152c-0.85153,0.01371 -2.00909,1.59389 -1.61921,2.29741z" data-paper-data="{&quot;glyphName&quot;:&quot;i&quot;,&quot;glyphIndex&quot;:2,&quot;word&quot;:1}" fill-rule="nonzero"></path><path d="M269.09311,321.38939c0.85002,0.75884 1.27533,0.99632 2.17429,0.99825c1.7506,0.00376 3.02867,-0.27738 4.30888,-1.5521c2.22851,-2.21896 2.51767,-4.67865 0.77235,-7.14271c-0.61315,-0.90028 -0.66066,-0.80575 1.32823,-1.60581c1.08912,-0.42349 3.12452,-0.84494 4.4496,-0.98404c2.0823,-0.2321 2.50832,-0.32581 2.65179,-1.03521c0.19128,-0.94586 -0.28083,-1.42001 -1.46367,-1.42255c-1.93985,-0.00416 -5.67995,1.07602 -7.38486,1.82938c-1.04191,0.4709 -1.56277,0.65904 -1.94127,0.65822c-0.37851,-0.00081 -0.56746,-0.14316 -0.94515,-0.52248c-0.80281,-0.71143 -0.80281,-0.71143 0.75854,-0.70808c2.83881,0.00609 7.19733,-2.63412 7.95892,-4.7616c0.38084,-1.0874 -0.46867,-2.08281 -2.12352,-2.60681c-0.61467,-0.19057 -1.22954,-0.28652 -1.84462,-0.28784c-2.27105,-0.00487 -4.54494,1.31503 -6.5846,3.72365c-1.51779,1.74735 -1.47119,2.07864 -1.28488,3.45114c0.14001,0.89926 0.61091,1.94117 1.03551,2.50985c0.70767,0.94779 0.70767,0.94779 -0.80951,2.41126c-2.79728,2.69088 -3.08655,5.19788 -1.05603,7.04747zM270.32956,318.45859c0.00203,-0.94627 0.33465,-1.60795 1.61465,-2.78804c0.9482,-0.89692 1.42215,-1.27442 1.80065,-1.2736c0.14194,0.0003 0.33099,0.09534 0.51984,0.285c1.1806,1.04344 1.17735,2.55747 0.08589,4.06916c-0.75935,1.08659 -1.56439,1.41605 -2.84185,1.41331c-0.99358,-0.00213 -1.18202,-0.38105 -1.17918,-1.70582zM277.97739,304.32821c1.46672,0.00315 1.32275,0.94911 -0.146,1.89223c-1.27929,0.8489 -3.26808,1.60165 -4.16704,1.59972c-0.09463,-0.0002 -0.18925,-0.00041 -0.28378,-0.04792c-1.41829,-0.52349 2.56234,-3.4484 4.59682,-3.44403z" data-paper-data="{&quot;glyphName&quot;:&quot;s&quot;,&quot;glyphIndex&quot;:3,&quot;word&quot;:1}" fill-rule="nonzero"></path><path d="M282.73412,314.25919c0.6005,0.62932 1.39795,0.93197 2.43857,0.95636c1.46632,0.03437 3.37275,-0.5362 5.5774,-1.71502c4.45217,-2.16733 7.47128,-5.78804 5.01164,-5.84569c-0.3784,-0.00887 -1.62707,0.76642 -2.83286,1.73201c-2.79776,2.25343 -6.29061,3.87532 -7.75693,3.84096c-0.2838,-0.00665 -0.51809,-0.1068 -0.60936,-0.25091c-0.18366,-0.24094 0.26865,-1.36617 1.00698,-2.57936l1.32811,-2.14589l2.36392,0.10273c0.3784,0.00887 0.66221,0.01552 0.94601,0.02217c1.27712,0.02993 1.42123,-0.06134 1.43343,-0.58165c0.01109,-0.47301 -0.45305,-0.8625 -1.34511,-1.16736c-1.40904,-0.45896 -1.20875,-0.92753 0.50626,-1.40793c0.80965,-0.21766 0.9704,-1.01844 0.2753,-1.64998c-0.32556,-0.24426 -0.60604,-0.39282 -0.93714,-0.40058c-0.56761,-0.0133 -1.23979,0.39688 -2.49289,1.36137c-1.39722,1.05576 -1.83068,1.37689 -2.91859,1.35139c-0.2365,-0.00554 -0.4719,-0.05839 -0.7557,-0.06504c-0.2838,-0.00665 -0.47301,-0.01109 -0.66221,-0.01552c-0.94601,-0.02217 -1.13743,0.06799 -1.14963,0.5883c-0.0133,0.56761 0.31115,0.85917 1.75973,1.65035c0.1419,0.00333 -0.34995,0.79635 -0.94084,1.77636c-1.3732,2.05019 -1.49662,3.27778 -0.24611,4.44293z" data-paper-data="{&quot;glyphName&quot;:&quot;t&quot;,&quot;glyphIndex&quot;:4,&quot;word&quot;:1}" fill-rule="nonzero"></path><path d="M295.27605,314.60127c0.68634,0.55089 1.43027,0.8675 2.32837,0.90669c2.69431,0.11756 11.29391,-4.85875 11.37021,-6.60769c0.02475,-0.56722 -0.19922,-0.86115 -0.67191,-0.88177c-0.51995,-0.02269 -1.38729,0.31834 -2.46226,1.07653c-4.05323,2.80674 -6.7642,4.15658 -8.18226,4.0947c-1.08718,-0.04744 -1.42614,-0.96204 -0.97168,-2.69448c0.22414,-0.79532 0.28378,-1.07687 0.66193,-1.06037c0.14181,0.00619 0.37402,0.11104 0.70078,0.22001c0.41923,0.16037 0.79325,0.2714 1.1714,0.2879c1.03991,0.04537 2.10457,-0.47648 3.33784,-1.60663c1.72659,-1.58222 1.95485,-2.47207 1.00139,-3.41349c-0.59181,-0.54677 -1.28846,-0.86131 -2.09203,-0.89637c-0.61449,-0.02681 -1.2845,0.13339 -2.05524,0.43127c-2.1704,0.89983 -3.35022,1.89024 -4.48706,4.0665c-1.18617,2.22146 -1.05707,4.68974 0.35051,6.07719zM298.71339,307.45802c0.01444,-0.33088 2.14582,-1.42185 2.80758,-1.39298c0.14181,0.00619 -0.20764,0.41717 -0.75028,0.91444c-0.6413,0.58768 -1.27023,0.89175 -1.69565,0.87319c-0.23634,-0.01031 -0.37402,-0.11104 -0.36165,-0.39465z" data-paper-data="{&quot;glyphName&quot;:&quot;e&quot;,&quot;glyphIndex&quot;:5,&quot;word&quot;:1}" fill-rule="nonzero"></path><path d="M305.20958,311.02297c-0.01138,1.56417 0.13577,2.19066 0.85578,2.7612c0.58481,0.46652 1.13845,0.6938 1.79932,0.73868c1.13292,0.07694 2.49633,-0.44697 4.61589,-1.63086c1.1338,-0.63434 2.12277,-1.2311 2.26439,-1.22148c0.14161,0.00962 0.14715,0.62649 0.09906,1.33456c-0.10258,1.51056 1.46536,3.56136 3.02312,3.66715c0.51925,0.03526 1.14574,-0.11188 2.01787,-0.38462c2.626,-0.95981 8.13677,-5.99175 7.49602,-7.03114c-0.17279,-0.24885 -0.3992,-0.40649 -0.68243,-0.42572c-0.70807,-0.04808 -1.84828,0.68067 -3.42062,2.18626c-2.33491,2.25999 -4.12725,3.51352 -5.11855,3.44621c-0.09441,-0.00641 -0.18882,-0.01282 -0.28002,-0.06644c-1.33368,-0.61222 -0.51774,-6.34236 1.02807,-6.75903c2.2603,-0.463 4.46146,-1.45166 6.46185,-2.9756c2.0916,-1.47033 2.20845,-1.79435 2.32064,-3.44652c0.15387,-2.26583 -0.8077,-3.46927 -2.83751,-3.60712c-2.59627,-0.17631 -5.43528,2.52367 -7.8113,7.48395c-0.60581,1.23927 -1.14838,2.24572 -1.28999,2.2361c-0.14161,-0.00962 -0.72963,-0.42893 -1.35524,-0.99306c-0.80481,-0.71857 -2.0569,-1.13556 -3.33143,-1.22211c-1.08571,-0.07373 -2.18745,0.08856 -2.93399,0.60694c-1.78593,1.15913 -2.90866,3.02721 -2.92092,5.30266zM312.55317,307.63302c1.54726,0.95868 1.19351,1.97795 -1.32614,3.46663c-1.48026,0.84793 -2.45962,1.30307 -3.07328,1.26139c-0.51925,-0.03526 -0.72963,-0.42893 -0.67514,-1.23141c0.16028,-2.36024 2.02868,-4.03542 3.82246,-3.9136c0.42484,0.02885 0.84328,0.15211 1.25209,0.41699zM319.5334,305.40396l0.49216,-0.96245c0.76665,-1.51288 2.5319,-3.76413 3.5305,-4.5025c0.44728,-0.30158 0.74013,-0.42396 0.97615,-0.40794c0.18882,0.01282 0.37123,0.12005 0.55043,0.27449c1.03122,0.87621 0.58946,1.79466 -1.20929,3.14261c-0.95139,0.74158 -2.33724,1.59591 -3.02055,1.88147z" data-paper-data="{&quot;glyphName&quot;:&quot;d&quot;,&quot;glyphIndex&quot;:6,&quot;lastGlyphOfWord&quot;:true,&quot;word&quot;:1}" fill-rule="nonzero"></path><path d="M160.13137,284.05444c-14.39189,2.60524 -28.67793,5.69634 -42.8581,9.27332l0.4818,1.91051c13.37325,-3.37325 26.84085,-6.31339 40.40281,-8.82043l-5.61181,8.19495c-0.0738,0.10773 -0.12418,0.22571 -0.15115,0.35396c-0.02697,0.12751 -0.02843,0.25539 -0.0044,0.38364c0.02404,0.12898 0.07171,0.24807 0.14301,0.35726c0.07138,0.10919 0.16093,0.2008 0.26866,0.27481c0.1089,0.07475 0.22795,0.12532 0.35715,0.1517c0.12927,0.02711 0.25865,0.02785 0.38815,0.0022c80.96816,-15.79777 161.93646,-15.79777 242.90491,0c0.06302,0.01246 0.12715,0.01869 0.19237,0.01869c0.06449,-0.00073 0.12825,-0.00733 0.19127,-0.01979c0.06376,-0.01319 0.12532,-0.03224 0.18467,-0.05716c0.06009,-0.02492 0.11689,-0.05533 0.17038,-0.09124c0.0535,-0.03664 0.10296,-0.07768 0.1484,-0.12312c0.04617,-0.04617 0.08684,-0.096 0.12202,-0.1495c0.03591,-0.05423 0.06632,-0.11139 0.09124,-0.17148c0.02418,-0.05936 0.0425,-0.12092 0.05496,-0.18467c0.02492,-0.12971 0.02418,-0.25906 -0.0022,-0.38804c-0.02638,-0.12898 -0.07695,-0.24807 -0.1517,-0.35726l-5.6117,-8.19495c13.56115,2.50704 27.0285,5.44718 40.40204,8.82043l0.48257,-1.91051c-14.1804,-3.57698 -28.46669,-6.66808 -42.85887,-9.27332c-0.12751,-0.02345 -0.25466,-0.02162 -0.38144,0.0055c-0.12678,0.02711 -0.24367,0.07731 -0.35066,0.1506c-0.10773,0.07402 -0.19713,0.16562 -0.26822,0.27481c-0.07109,0.10993 -0.11872,0.22901 -0.1429,0.35726c-0.02418,0.12825 -0.02272,0.25649 0.0044,0.38474c0.02711,0.12751 0.07731,0.24513 0.1506,0.35286l5.59301,8.16747c-79.64861,-15.24008 -159.29722,-15.24008 -238.94583,0l5.5929,-8.16747c0.07321,-0.10699 0.12337,-0.22388 0.15049,-0.35066c0.02711,-0.12678 0.02913,-0.25393 0.00605,-0.38144c-0.01151,-0.06376 -0.02913,-0.12568 -0.05287,-0.18577c-0.02367,-0.06009 -0.05302,-0.11725 -0.08805,-0.17148c-0.03503,-0.05423 -0.07501,-0.1048 -0.11993,-0.1517c-0.04492,-0.04617 -0.09399,-0.08794 -0.14719,-0.12532c-0.05313,-0.03664 -0.10934,-0.06779 -0.16863,-0.09344c-0.05936,-0.02565 -0.12062,-0.04544 -0.1838,-0.05936c-0.06324,-0.01392 -0.12718,-0.02125 -0.19182,-0.02199c-0.06471,-0.00147 -0.12891,0.00366 -0.19259,0.01539z" fill-rule="evenodd"></path><path d="M390.71099,330.70355c11.1208,2.18898 22.16905,4.69089 33.14475,7.50572l0.49027,-1.90831c-11.33479,-2.90643 -22.74286,-5.47979 -34.22422,-7.72007c-0.06376,-0.01246 -0.12788,-0.01869 -0.19237,-0.01869c-0.06449,0.00073 -0.12861,0.00733 -0.19237,0.01979c-0.06302,0.01319 -0.12422,0.03224 -0.18358,0.05716c-0.06009,0.02492 -0.11689,0.05533 -0.17038,0.09124c-0.0535,0.03591 -0.10333,0.07695 -0.1495,0.12312c-0.04544,0.04617 -0.08574,0.096 -0.12092,0.1495c-0.03591,0.05423 -0.06632,0.11139 -0.09124,0.17148c-0.02418,0.05936 -0.0425,0.12092 -0.05496,0.18467l-1.48839,7.62883c-74.98557,-14.50651 -149.97103,-14.50651 -224.95638,0l-1.48839,-7.62883c-0.02499,-0.12825 -0.07358,-0.24697 -0.14576,-0.35616c-0.07218,-0.10846 -0.16247,-0.19933 -0.27086,-0.27262c-0.10831,-0.07255 -0.22648,-0.12202 -0.35451,-0.1484c-0.12803,-0.02565 -0.25616,-0.02602 -0.38441,-0.0011c-11.48466,2.24102 -22.89262,4.81437 -34.22389,7.72007l0.4895,1.90831c10.97929,-2.81556 22.02762,-5.31747 33.14497,-7.50572l1.48806,7.62773c0.02506,0.12825 0.07369,0.2466 0.14587,0.35506c0.07211,0.10919 0.16236,0.20006 0.27075,0.27262c0.10831,0.07328 0.22652,0.12275 0.35462,0.1484c0.12803,0.02638 0.25613,0.02711 0.3843,0.0022c75.37852,-14.70731 150.75696,-14.70731 226.13533,0c0.06376,0.01173 0.12788,0.01759 0.19237,0.01759c0.06522,0 0.12935,-0.0066 0.19237,-0.01979c0.06376,-0.01246 0.12532,-0.03115 0.18467,-0.05606c0.05936,-0.02492 0.11615,-0.0557 0.17038,-0.09234c0.0535,-0.03591 0.10296,-0.07695 0.1484,-0.12312c0.04544,-0.04544 0.08611,-0.09527 0.12202,-0.1495c0.03591,-0.0535 0.06596,-0.11029 0.09014,-0.17038c0.02492,-0.06009 0.0436,-0.12165 0.05606,-0.18467z" fill-rule="evenodd"></path></g><g data-paper-data="{&quot;isContainerElementsWrapper&quot;:true}" fill-rule="evenodd"><path d="M156.13975,184.78573c6.52811,-15.43421 15.74259,-29.10169 27.64342,-41.00245c11.90091,-11.90091 25.56839,-21.11538 41.00245,-27.64342c15.98215,-6.75991 32.72029,-10.13986 50.21443,-10.13986c17.49432,0 34.23192,3.37999 50.21399,10.13986c15.43428,6.52804 29.10206,15.74251 41.00333,27.64341c11.90054,11.9004 21.11487,25.56789 27.64298,41.00246c6.75932,15.98197 10.13953,32.72011 10.13953,50.21443c0,16.67351 -3.07022,32.65998 -9.21066,47.95942c-0.65735,-0.12422 -1.31581,-0.24733 -1.97426,-0.36935c6.14337,-15.17559 9.21506,-31.03895 9.21506,-47.59007c0,-17.22731 -3.32745,-33.70966 -9.98344,-49.44693c-6.42845,-15.19816 -15.5028,-28.65709 -27.22306,-40.37679c-11.71953,-11.71973 -25.17845,-20.7937 -40.37675,-27.22193c-15.73694,-6.65614 -32.21918,-9.98421 -49.44671,-9.98421c-17.22764,0 -33.70999,3.32811 -49.44693,9.98421c-15.19823,6.4283 -28.65717,15.50227 -40.3768,27.22192c-11.71979,11.71971 -20.79377,25.17864 -27.22192,40.3768c-6.65614,15.73687 -9.98421,32.21918 -9.98421,49.44693c0,16.55138 3.07198,32.41485 9.21583,47.59007c-0.65867,0.12202 -1.31713,0.24513 -1.97547,0.36935c-6.14044,-15.29944 -9.21066,-31.28591 -9.21066,-47.95942c0,-17.4941 3.37999,-34.23225 10.13986,-50.21443zM194.32224,335.68428c9.24709,7.43866 19.40146,13.49776 30.46338,18.17619c15.98263,6.75932 32.72077,10.13953 50.21443,10.13953c17.49432,0 34.23192,-3.38021 50.21399,-10.13953c11.06217,-4.67843 21.2171,-10.73716 30.46477,-18.17619c-0.90139,-0.12605 -1.80315,-0.2499 -2.70527,-0.37155c-8.7083,6.7956 -18.21723,12.37359 -28.52678,16.73397c-15.73694,6.65599 -32.21918,9.98344 -49.44671,9.98344c-17.2279,0 -33.71021,-3.32781 -49.44693,-9.98344c-10.30911,-4.36038 -19.81802,-9.93837 -28.52674,-16.73397c-0.89959,0.12165 -1.80098,0.2455 -2.70415,0.37155zM389.17863,290.75441c0.32978,0.06009 0.65626,0.11982 0.97944,0.17918l-0.62548,-0.91348c-0.11725,0.24477 -0.23524,0.48954 -0.35396,0.7343zM160.82269,290.75441c-0.32472,0.05863 -0.65168,0.11835 -0.98087,0.17918l0.6257,-0.91348c0.11762,0.24477 0.23601,0.48954 0.35517,0.7343z" data-paper-data="{&quot;isAdditionalOutlinePath&quot;:true}"></path><path d="M151.86134,235.00016c0,-68.00764 55.13107,-123.13871 123.13871,-123.13871c68.00764,0 123.1386,55.13107 123.1386,123.13871c0,16.72847 -3.33624,32.67757 -9.37885,47.21962c-0.07805,0.02528 -0.15609,0.05496 -0.23304,0.08794c-0.17698,0.07585 -0.34517,0.16929 -0.50346,0.27811c-0.16049,0.10883 -0.30889,0.23304 -0.4441,0.37265c-0.13557,0.13851 -0.25649,0.2891 -0.36275,0.45179c-0.10553,0.16269 -0.19457,0.33417 -0.26712,0.51335c-0.07145,0.18028 -0.12532,0.36605 -0.16159,0.55622c-0.03628,0.19127 -0.05276,0.38364 -0.05057,0.57711c0.0022,0.19457 0.02308,0.38584 0.06376,0.57601c0.04067,0.19017 0.09893,0.37375 0.17478,0.55293c0.00879,0.01979 0.01759,0.03957 0.02638,0.05936c-0.5848,1.27624 -1.19159,2.54148 -1.81817,3.79353c-12.50367,-2.19998 -25.00733,-4.02547 -37.511,-5.47649c9.64377,-14.11224 15.28295,-31.17862 15.28295,-49.56213c0,-48.57687 -39.37863,-87.95625 -87.95583,-87.95625c-48.57687,0 -87.95625,39.37938 -87.95625,87.95625c0,18.38351 5.63978,35.44989 15.28347,49.56323c-12.50378,1.45028 -25.00756,3.27542 -37.51133,5.47539c-0.6268,-1.25205 -1.23293,-2.5173 -1.81784,-3.79353c0.00835,-0.01759 0.01649,-0.03628 0.0244,-0.05496c0.07596,-0.17698 0.134,-0.36056 0.17434,-0.54853c0.04034,-0.18797 0.062,-0.37924 0.06497,-0.57161c0.00308,-0.19274 -0.01253,-0.38364 -0.04683,-0.57271c-0.01726,-0.09564 -0.03913,-0.18907 -0.06563,-0.28251c-0.02649,-0.09344 -0.05749,-0.18467 -0.093,-0.27481c-0.03551,-0.09014 -0.0753,-0.17808 -0.11949,-0.26382c-0.04408,-0.08684 -0.09234,-0.17038 -0.14477,-0.25173c-0.05232,-0.08134 -0.10861,-0.16049 -0.16874,-0.23634c-0.06013,-0.07585 -0.12378,-0.1484 -0.19094,-0.21765c-0.06727,-0.06925 -0.13774,-0.13631 -0.2115,-0.19897c-0.07376,-0.06266 -0.15049,-0.12092 -0.22996,-0.17588c-0.07948,-0.05606 -0.16159,-0.10663 -0.24612,-0.1539c-0.08453,-0.04727 -0.17126,-0.09014 -0.25997,-0.12861c-0.08036,-0.03518 -0.16203,-0.06596 -0.24513,-0.09344c-6.04261,-14.54205 -9.37841,-30.49115 -9.37841,-47.21962zM202.56527,334.59162c20.32666,14.80917 45.36034,23.54715 72.43478,23.54715c27.07466,0 52.10801,-8.73798 72.43434,-23.54715c-48.28964,-6.05617 -96.57935,-6.05617 -144.86913,0z" data-paper-data="{&quot;isBaseLogoContainer&quot;:true}"></path></g></g></g><g class="watermark-group" style="opacity:0.10; stroke: white; stroke-width: 2; stroke-opacity: 0.7;"></g></svg>